<svg width="25" height="25" viewBox="0 0 25 25" fill="none" xmlns="http://www.w3.org/2000/svg">
<path d="M5.20842 9.37508V21.8751H1.04175V9.37508H5.20842ZM9.37508 21.8751C8.82255 21.8751 8.29264 21.6556 7.90194 21.2649C7.51124 20.8742 7.29175 20.3443 7.29175 19.7917V9.37508C7.29175 8.80216 7.52092 8.28133 7.90633 7.90633L14.7605 1.04175L15.8647 2.14591C16.1459 2.42716 16.323 2.81258 16.323 3.23966L16.2917 3.573L15.3022 8.33341H21.8751C23.0313 8.33341 23.9584 9.27091 23.9584 10.4167V12.5001C23.9584 12.7709 23.9063 13.0209 23.8126 13.2605L20.6667 20.6042C20.3542 21.3542 19.6147 21.8751 18.7501 21.8751H9.37508ZM9.37508 19.7917H18.7813L21.8751 12.5001V10.4167H12.7188L13.8959 4.87508L9.37508 9.40633V19.7917Z" fill="#2D2D2D"/>
</svg>
