<svg width="21" height="26" viewBox="0 0 21 26" fill="none" xmlns="http://www.w3.org/2000/svg">
<g id="Icon / Apple">
<path id="&#239;&#163;&#191;" d="M10.0395 5.7C11.1211 5.7 12.477 4.94628 13.2844 3.94132C14.0156 3.03058 14.5488 1.75868 14.5488 0.486776C14.5488 0.314049 14.5336 0.141322 14.5031 0C13.2996 0.0471075 11.8523 0.832231 10.984 1.8843C10.2984 2.68512 9.67383 3.94132 9.67383 5.22893C9.67383 5.41736 9.7043 5.60579 9.71953 5.6686C9.7957 5.6843 9.91758 5.7 10.0395 5.7ZM6.23086 24.7C7.70859 24.7 8.36367 23.6793 10.207 23.6793C12.0809 23.6793 12.4922 24.6686 14.1375 24.6686C15.7523 24.6686 16.834 23.1298 17.8547 21.6223C18.9973 19.895 19.4695 18.1992 19.5 18.1207C19.3934 18.0893 16.3008 16.786 16.3008 13.1273C16.3008 9.95537 18.7383 8.52645 18.8754 8.41653C17.2605 6.02975 14.8078 5.96694 14.1375 5.96694C12.3246 5.96694 10.8469 7.09752 9.91758 7.09752C8.91211 7.09752 7.58672 6.02975 6.01758 6.02975C3.03164 6.02975 0 8.57355 0 13.3785C0 16.362 1.12734 19.5182 2.51367 21.5595C3.70195 23.2868 4.73789 24.7 6.23086 24.7Z" fill="#0B0B0B"/>
</g>
</svg>
