<svg width="38" height="38" viewBox="0 0 38 38" fill="none" xmlns="http://www.w3.org/2000/svg">
<path d="M26.7787 8.73774H33.0001" stroke="#2D2D2D" stroke-width="2.48889" stroke-linecap="round" stroke-linejoin="round"/>
<path d="M5 8.73774H17.8795" stroke="#2D2D2D" stroke-width="2.48889" stroke-linecap="round" stroke-linejoin="round"/>
<path d="M25.1445 10.4755C26.0872 10.4755 26.8515 9.69751 26.8515 8.73776C26.8515 7.77801 26.0872 6.99998 25.1445 6.99998C24.2017 6.99998 23.4375 7.77801 23.4375 8.73776C23.4375 9.69751 24.2017 10.4755 25.1445 10.4755Z" fill="#2D2D2D" stroke="#2D2D2D" stroke-width="3.59562" stroke-linecap="round" stroke-linejoin="round"/>
<path d="M26.7787 30.1511H33.0001" stroke="#2D2D2D" stroke-width="2.48889" stroke-linecap="round" stroke-linejoin="round"/>
<path d="M5 30.1511H17.8795" stroke="#2D2D2D" stroke-width="2.48889" stroke-linecap="round" stroke-linejoin="round"/>
<path d="M25.1445 31.8889C26.0872 31.8889 26.8515 31.1108 26.8515 30.1511C26.8515 29.1913 26.0872 28.4133 25.1445 28.4133C24.2017 28.4133 23.4375 29.1913 23.4375 30.1511C23.4375 31.1108 24.2017 31.8889 25.1445 31.8889Z" fill="#2D2D2D" stroke="#2D2D2D" stroke-width="3.59562" stroke-linecap="round" stroke-linejoin="round"/>
<path d="M11.2213 19.4444H5" stroke="#2D2D2D" stroke-width="2.48889" stroke-linecap="round" stroke-linejoin="round"/>
<path d="M33.0001 19.4444H20.1205" stroke="#2D2D2D" stroke-width="2.48889" stroke-linecap="round" stroke-linejoin="round"/>
<path d="M12.8555 21.1822C13.7983 21.1822 14.5625 20.4042 14.5625 19.4444C14.5625 18.4847 13.7983 17.7067 12.8555 17.7067C11.9128 17.7067 11.1485 18.4847 11.1485 19.4444C11.1485 20.4042 11.9128 21.1822 12.8555 21.1822Z" fill="#2D2D2D" stroke="#2D2D2D" stroke-width="3.59562" stroke-linecap="round" stroke-linejoin="round"/>
</svg>
