<svg width="26" height="28" viewBox="0 0 26 28" fill="none" xmlns="http://www.w3.org/2000/svg">
<path d="M22.2437 26.2341H3.58236C3.296 26.2358 3.01913 26.1314 2.80521 25.941C2.59129 25.7507 2.45549 25.4878 2.42399 25.2032L1.50889 11.4707C1.50406 11.3173 1.53072 11.1645 1.58722 11.0218C1.64373 10.879 1.72888 10.7494 1.83742 10.6409C1.94596 10.5323 2.0756 10.4472 2.21832 10.3907C2.36104 10.3342 2.51383 10.3075 2.66726 10.3123H23.35C23.6572 10.3123 23.9518 10.4344 24.1691 10.6516C24.3863 10.8688 24.5083 11.1635 24.5083 11.4707L23.4021 25.2147C23.3679 25.4973 23.231 25.7573 23.0173 25.9454C22.8037 26.1334 22.5283 26.2362 22.2437 26.2341Z" stroke="#2D2D2D" stroke-width="2.40407" stroke-linecap="round" stroke-linejoin="round"/>
<path d="M7.21379 14.0713V7.70029C7.21379 6.1642 7.82402 4.69102 8.9102 3.60483C9.99638 2.51865 11.4695 1.90845 13.0056 1.90845C14.5417 1.90845 16.0149 2.51865 17.1011 3.60483C18.1873 4.69102 18.7975 6.1642 18.7975 7.70029V14.0713" stroke="#2D2D2D" stroke-width="2.40407" stroke-linecap="round" stroke-linejoin="round"/>
</svg>
