<svg width="27" height="23" viewBox="0 0 27 23" fill="none" xmlns="http://www.w3.org/2000/svg">
<path d="M22.477 2.9234C21.3015 2.18724 19.9089 1.87688 18.5321 2.04423C17.1552 2.21158 15.8775 2.84648 14.9126 3.8428L13.5032 5.23017H13.4702L12.0773 3.8428C11.1124 2.84648 9.83467 2.21158 8.45781 2.04423C7.08095 1.87688 5.68836 2.18724 4.51285 2.9234C3.82587 3.36828 3.24674 3.96073 2.81758 4.65764C2.38841 5.35454 2.12002 6.13838 2.03195 6.95207C1.94389 7.76577 2.03835 8.58886 2.30847 9.36145C2.57859 10.134 3.01757 10.8367 3.59346 11.4182L13.4316 21.8069L13.6298 21.6088L13.6904 21.6693L23.413 11.4182C23.9881 10.8356 24.4259 10.1319 24.6948 9.35864C24.9636 8.58534 25.0565 7.76182 24.9669 6.94806C24.8772 6.13429 24.6072 5.35078 24.1765 4.65455C23.7458 3.95832 23.1652 3.36692 22.477 2.9234Z" fill="#D8004E" stroke="#D8004E" stroke-width="2.40407" stroke-linecap="round" stroke-linejoin="round"/>
</svg>
