<svg width="26" height="26" viewBox="0 0 26 26" fill="none" xmlns="http://www.w3.org/2000/svg">
<g id="Google" clip-path="url(#clip0_881_5703)">
<g id="Group">
<path id="Shape" fill-rule="evenodd" clip-rule="evenodd" d="M25.48 13.2955C25.48 12.3737 25.3973 11.4873 25.2436 10.6364H13V15.665H19.9964C19.695 17.29 18.7791 18.6668 17.4023 19.5887V22.8505H21.6036C24.0618 20.5873 25.48 17.2546 25.48 13.2955Z" fill="#4285F4"/>
<path id="Shape_2" fill-rule="evenodd" clip-rule="evenodd" d="M13.0001 26C16.5101 26 19.4528 24.8359 21.6037 22.8505L17.4024 19.5886C16.2383 20.3686 14.7492 20.8295 13.0001 20.8295C9.61418 20.8295 6.74827 18.5427 5.72599 15.47H1.38281V18.8382C3.5219 23.0868 7.91827 26 13.0001 26Z" fill="#34A853"/>
<path id="Shape_3" fill-rule="evenodd" clip-rule="evenodd" d="M5.72591 15.47C5.46591 14.69 5.31818 13.8568 5.31818 13C5.31818 12.1432 5.46591 11.31 5.72591 10.53V7.16183H1.38273C0.502273 8.91683 0 10.9023 0 13C0 15.0977 0.502273 17.0832 1.38273 18.8382L5.72591 15.47Z" fill="#FBBC05"/>
<path id="Shape_4" fill-rule="evenodd" clip-rule="evenodd" d="M13.0001 5.17045C14.9087 5.17045 16.6224 5.82636 17.9696 7.11455L21.6983 3.38591C19.4469 1.28818 16.5042 0 13.0001 0C7.91827 0 3.5219 2.91318 1.38281 7.16182L5.72599 10.53C6.74827 7.45727 9.61418 5.17045 13.0001 5.17045Z" fill="#EA4335"/>
</g>
</g>
<defs>
<clipPath id="clip0_881_5703">
<rect width="26" height="26" fill="white"/>
</clipPath>
</defs>
</svg>
