<svg width="29" height="32" viewBox="0 0 29 32" fill="none" xmlns="http://www.w3.org/2000/svg">
<path d="M24.2437 28.2341H5.58233C5.29597 28.2358 5.0191 28.1314 4.80518 27.941C4.59126 27.7506 4.45546 27.4878 4.42396 27.2031L3.50886 13.4707C3.50403 13.3173 3.53069 13.1645 3.58719 13.0218C3.6437 12.879 3.72885 12.7494 3.83739 12.6409C3.94593 12.5323 4.07557 12.4472 4.21829 12.3907C4.36101 12.3342 4.5138 12.3075 4.66723 12.3123H25.3499C25.6571 12.3123 25.9518 12.4344 26.169 12.6516C26.3863 12.8688 26.5083 13.1635 26.5083 13.4707L25.4021 27.2147C25.3679 27.4973 25.2309 27.7573 25.0173 27.9453C24.8036 28.1334 24.5283 28.2361 24.2437 28.2341Z" fill="#FBFBFB" stroke="#FBFBFB" stroke-width="2.40407" stroke-linecap="round" stroke-linejoin="round"/>
<path d="M9.21387 16.0713V9.70029C9.21387 8.1642 9.82409 6.69102 10.9103 5.60483C11.9965 4.51865 13.4696 3.90845 15.0057 3.90845C16.5418 3.90845 18.015 4.51865 19.1012 5.60483C20.1874 6.69102 20.7976 8.1642 20.7976 9.70029V16.0713" stroke="#FBFBFB" stroke-width="2.40407" stroke-linecap="round" stroke-linejoin="round"/>
</svg>
