<svg width="38" height="38" viewBox="0 0 38 38" fill="none" xmlns="http://www.w3.org/2000/svg">
<path fill-rule="evenodd" clip-rule="evenodd" d="M7.07453 10.3004H30.9255C30.9603 10.3004 30.9963 10.3029 31.0311 10.3054C31.0658 10.3091 31.1006 10.3141 31.1354 10.3216C31.1702 10.3278 31.2037 10.3365 31.2373 10.3464C31.2708 10.3576 31.3043 10.3688 31.3366 10.3824C31.3689 10.3961 31.4012 10.411 31.4323 10.4272C31.4634 10.4445 31.4932 10.4619 31.5217 10.4818C31.5516 10.5017 31.5801 10.5216 31.6075 10.5439C31.6348 10.5663 31.6609 10.5899 31.6857 10.6147C31.7106 10.6396 31.7342 10.6657 31.7565 10.693C31.7789 10.7203 31.7988 10.7489 31.8186 10.7787C31.8385 10.8073 31.8559 10.8371 31.8733 10.8681C31.8894 10.8992 31.9043 10.9315 31.918 10.9638C31.9317 10.9961 31.9429 11.0296 31.954 11.0632C31.964 11.0967 31.9727 11.1303 31.9789 11.165C31.9863 11.1998 31.9913 11.2346 31.995 11.2694C31.9975 11.3042 32 11.3402 32 11.375C32 11.4098 31.9975 11.4458 31.995 11.4806C31.9913 11.5154 31.9863 11.5501 31.9789 11.5849C31.9727 11.6197 31.964 11.6532 31.954 11.6868C31.9429 11.7203 31.9317 11.7539 31.918 11.7862C31.9043 11.8185 31.8894 11.8508 31.8733 11.8818C31.8559 11.9129 31.8385 11.9427 31.8186 11.9712C31.7988 12.0011 31.7789 12.0296 31.7565 12.057C31.7342 12.0843 31.7106 12.1104 31.6857 12.1352C31.6609 12.1601 31.6348 12.1837 31.6075 12.206C31.5801 12.2284 31.5516 12.2483 31.5217 12.2681C31.4932 12.288 31.4634 12.3054 31.4323 12.3228C31.4012 12.339 31.3689 12.3539 31.3366 12.3675C31.3043 12.3812 31.2708 12.3924 31.2373 12.4035C31.2037 12.4135 31.1702 12.4222 31.1354 12.4284C31.1006 12.4358 31.0658 12.4408 31.0311 12.4445C30.9963 12.447 30.9603 12.4495 30.9255 12.4495H7.07453C7.03975 12.4495 7.00372 12.447 6.96894 12.4445C6.93416 12.4408 6.89937 12.4358 6.86459 12.4284C6.82981 12.4222 6.79627 12.4135 6.76273 12.4035C6.72919 12.3924 6.69565 12.3812 6.66335 12.3675C6.63105 12.3539 6.59876 12.3389 6.5677 12.3228C6.53664 12.3054 6.50683 12.288 6.47826 12.2681C6.44845 12.2483 6.41988 12.2284 6.39255 12.206C6.36522 12.1837 6.33913 12.1601 6.31429 12.1352C6.28944 12.1104 6.26584 12.0843 6.24348 12.057C6.22112 12.0296 6.20124 12.0011 6.18137 11.9712C6.16149 11.9427 6.1441 11.9129 6.12671 11.8818C6.11056 11.8508 6.09565 11.8185 6.08199 11.7862C6.06832 11.7539 6.05714 11.7203 6.04596 11.6868C6.03602 11.6532 6.02733 11.6197 6.02112 11.5849C6.01366 11.5501 6.0087 11.5153 6.00497 11.4806C6.00248 11.4458 6 11.4098 6 11.375C6 11.3402 6.00248 11.3042 6.00497 11.2694C6.0087 11.2346 6.01366 11.1998 6.02112 11.165C6.02733 11.1303 6.03602 11.0967 6.04596 11.0632C6.05714 11.0296 6.06832 10.9961 6.08199 10.9638C6.09565 10.9315 6.11056 10.8992 6.12671 10.8681C6.1441 10.8371 6.16149 10.8073 6.18137 10.7787C6.20124 10.7489 6.22112 10.7203 6.24348 10.693C6.26584 10.6657 6.28944 10.6396 6.31429 10.6147C6.33913 10.5899 6.36522 10.5663 6.39255 10.5439C6.41987 10.5216 6.44845 10.5017 6.47826 10.4818C6.50683 10.4619 6.53664 10.4445 6.5677 10.4272C6.59876 10.411 6.63105 10.3961 6.66335 10.3824C6.69565 10.3688 6.72919 10.3576 6.76273 10.3464C6.79627 10.3365 6.82981 10.3278 6.86459 10.3216C6.89938 10.3141 6.93416 10.3091 6.96894 10.3054C7.00372 10.3029 7.03975 10.3004 7.07453 10.3004Z" fill="black"/>
<path fill-rule="evenodd" clip-rule="evenodd" d="M24.3006 12.4496H10.7988V29.9254C10.7988 30.3614 10.9528 30.7328 11.2609 31.0396C11.5677 31.3477 11.9391 31.5017 12.3752 31.5017H25.6248C26.0609 31.5017 26.4323 31.3477 26.7391 31.0396C27.0472 30.7328 27.2012 30.3614 27.2012 29.9254V12.4496H24.3006ZM12.6248 10.3006H9.72418C9.68939 10.3006 9.65461 10.303 9.61983 10.3055C9.58381 10.3092 9.54902 10.3142 9.51549 10.3217C9.4807 10.3279 9.44592 10.3366 9.41238 10.3465C9.37884 10.3577 9.34654 10.3689 9.313 10.3825C9.2807 10.3962 9.24965 10.4111 9.21859 10.4273C9.18754 10.4446 9.15648 10.462 9.12791 10.4819C9.09809 10.5018 9.07076 10.5217 9.04344 10.544C9.01611 10.5664 8.99002 10.59 8.96518 10.6148C8.94033 10.6397 8.91673 10.6658 8.89437 10.6931C8.87201 10.7204 8.85089 10.749 8.83101 10.7788C8.81114 10.8074 8.79375 10.8372 8.7776 10.8683C8.76021 10.8993 8.7453 10.9316 8.73164 10.9639C8.71797 10.9962 8.70679 11.0297 8.69685 11.0633C8.68567 11.0968 8.67822 11.1304 8.67076 11.1651C8.66455 11.1999 8.65834 11.2347 8.65586 11.2695C8.65213 11.3043 8.64965 11.3403 8.64965 11.3751V29.9254C8.64965 30.954 9.01361 31.8322 9.74157 32.5589C10.4683 33.2869 11.3466 33.6508 12.3751 33.6508H25.6248C26.6534 33.6508 27.5316 33.2869 28.2583 32.5589C28.9863 31.8322 29.3502 30.9539 29.3502 29.9254V11.3751C29.3502 11.3403 29.3477 11.3043 29.344 11.2695C29.3415 11.2347 29.3353 11.1999 29.3291 11.1651C29.3217 11.1304 29.313 11.0968 29.303 11.0633C29.2931 11.0297 29.2819 10.9962 29.2682 10.9639C29.2546 10.9316 29.2397 10.8993 29.2223 10.8683C29.2061 10.8372 29.1887 10.8074 29.1689 10.7788C29.149 10.749 29.1279 10.7204 29.1055 10.6931C29.0831 10.6658 29.0595 10.6397 29.0347 10.6148C29.0099 10.59 28.9838 10.5664 28.9564 10.544C28.9291 10.5217 28.9018 10.5018 28.872 10.4819C28.8434 10.462 28.8123 10.4446 28.7813 10.4273C28.7502 10.4111 28.7192 10.3962 28.6869 10.3825C28.6533 10.3689 28.621 10.3577 28.5875 10.3465C28.554 10.3366 28.5192 10.3279 28.4844 10.3217C28.4508 10.3142 28.4161 10.3092 28.38 10.3055C28.3453 10.303 28.3105 10.3006 28.2757 10.3006H25.3751V8.7254C25.3751 7.69682 25.0111 6.81857 24.2831 6.09188C23.5564 5.36392 22.6782 4.99995 21.6496 4.99995H16.3503C15.3217 4.99995 14.4434 5.36392 13.7167 6.09188C12.9888 6.8186 12.6248 7.69686 12.6248 8.7254L12.6248 10.3006ZM14.7739 10.3006H23.226V8.7254C23.226 8.28938 23.072 7.91794 22.7639 7.61112C22.4571 7.30304 22.0856 7.14902 21.6496 7.14902H16.3503C15.9142 7.14902 15.5428 7.30305 15.236 7.61112C14.9279 7.91795 14.7739 8.28938 14.7739 8.7254V10.3006Z" fill="black"/>
</svg>
