<svg width="29" height="29" viewBox="0 0 29 29" fill="none" xmlns="http://www.w3.org/2000/svg">
<path d="M25.4255 12.7492V27.4217H3.6214V12.6673" stroke="#2D2D2D" stroke-width="2.2438" stroke-linecap="round" stroke-linejoin="round"/>
<path d="M27.3363 7.71284L23.7603 1.69373H5.17731L1.60814 7.71284H1.53989V9.83527C1.56837 10.6119 1.90303 11.3457 2.47077 11.8763C3.03851 12.407 3.79319 12.6914 4.56994 12.6674H5.034C5.81076 12.6914 6.56543 12.407 7.13317 11.8763C7.70091 11.3457 8.03558 10.6119 8.06406 9.83527C8.09078 10.6113 8.42396 11.345 8.99061 11.8759C9.55727 12.4067 10.3112 12.6913 11.0873 12.6674H11.5582C12.9845 12.6674 14.1788 11.05 14.4927 9.80116C14.8066 11.05 16.0009 12.6674 17.434 12.6674H17.9186C18.6953 12.6914 19.45 12.407 20.0177 11.8763C20.5855 11.3457 20.9201 10.6119 20.9486 9.83527C20.9753 10.6113 21.3085 11.345 21.8752 11.8759C22.4418 12.4067 23.1958 12.6913 23.9719 12.6674H24.4359C25.2127 12.6914 25.9673 12.407 26.5351 11.8763C27.1028 11.3457 27.4375 10.6119 27.466 9.83527V7.71284H27.3363Z" stroke="#2D2D2D" stroke-width="2.2438" stroke-linecap="round" stroke-linejoin="round"/>
<path d="M18.6829 18.3385H10.3571V27.4218H18.6829V18.3385Z" stroke="#2D2D2D" stroke-width="2.2438" stroke-linecap="round" stroke-linejoin="round"/>
</svg>
