<svg width="37" height="25" viewBox="0 0 37 25" fill="none" xmlns="http://www.w3.org/2000/svg">
<path d="M15.6761 22.8407C18.5556 22.8407 20.8899 20.5064 20.8899 17.6269C20.8899 14.7474 18.5556 12.413 15.6761 12.413C12.7965 12.413 10.4622 14.7474 10.4622 17.6269C10.4622 20.5064 12.7965 22.8407 15.6761 22.8407Z" stroke="#AC003E" stroke-width="2.56434" stroke-linecap="round" stroke-linejoin="round"/>
<path d="M1.94524 15.6686C2.81688 12.7483 4.59676 10.1819 7.02639 8.34213C9.45601 6.50236 12.4089 5.48505 15.4561 5.43788C18.5033 5.3907 21.4863 6.31616 23.9717 8.07984C26.4571 9.84353 28.3156 12.3536 29.2772 15.2455" stroke="#AC003E" stroke-width="2.56434" stroke-linecap="round" stroke-linejoin="round"/>
<path d="M24.9309 8.87791C26.2587 8.69527 29.253 7.61471 30.6079 4.7536" stroke="#AC003E" stroke-width="2.56434" stroke-linecap="round"/>
<path d="M29.4222 15.2628C30.7624 15.2773 33.8831 14.6485 35.6437 12.0175" stroke="#AC003E" stroke-width="2.56434" stroke-linecap="round"/>
<path d="M18.2441 5.71866C19.3292 5.42853 21.7088 4.22683 22.5467 1.74104" stroke="#AC003E" stroke-width="2.56434" stroke-linecap="round"/>
</svg>
