<svg width="27" height="23" viewBox="0 0 27 23" fill="none" xmlns="http://www.w3.org/2000/svg">
<path d="M22.477 2.92342C21.3015 2.18725 19.9089 1.8769 18.5321 2.04424C17.1552 2.21159 15.8775 2.84649 14.9126 3.84281L13.5032 5.23018H13.4702L12.0773 3.84281C11.1124 2.84649 9.83467 2.21159 8.45781 2.04424C7.08095 1.8769 5.68836 2.18725 4.51285 2.92342C3.82587 3.3683 3.24674 3.96074 2.81758 4.65765C2.38841 5.35456 2.12002 6.13839 2.03195 6.95208C1.94389 7.76578 2.03835 8.58887 2.30847 9.36146C2.57859 10.134 3.01757 10.8367 3.59346 11.4183L13.4316 21.807L13.6298 21.6088L13.6904 21.6693L23.413 11.4183C23.9881 10.8356 24.4259 10.132 24.6948 9.35865C24.9636 8.58535 25.0565 7.76183 24.9669 6.94807C24.8772 6.1343 24.6072 5.35079 24.1765 4.65456C23.7458 3.95833 23.1652 3.36693 22.477 2.92342V2.92342Z" stroke="#2D2D2D" stroke-width="2.40407" stroke-linecap="round" stroke-linejoin="round"/>
</svg>
