<svg width="25" height="25" viewBox="0 0 25 25" fill="none" xmlns="http://www.w3.org/2000/svg">
<path d="M23.9584 10.4167C23.9584 9.26044 23.0209 8.33335 21.875 8.33335H15.2917L16.2917 3.57294C16.3125 3.46877 16.3229 3.35419 16.3229 3.2396C16.3229 2.81252 16.1459 2.41669 15.8646 2.13544L14.7604 1.04169L7.90627 7.89585C7.52085 8.28127 7.29169 8.8021 7.29169 9.37502V19.7917C7.29169 20.3442 7.51118 20.8741 7.90188 21.2648C8.29258 21.6555 8.82249 21.875 9.37502 21.875H18.75C19.6146 21.875 20.3542 21.3542 20.6667 20.6042L23.8125 13.2604C23.9063 13.0209 23.9584 12.7709 23.9584 12.5V10.4167ZM1.04169 21.875H5.20835V9.37502H1.04169V21.875Z" fill="#AA1DA4"/>
</svg>
