<svg width="53" height="53" viewBox="0 0 53 53" fill="none" xmlns="http://www.w3.org/2000/svg">
<g filter="url(#filter0_d_2081_14150)">
<rect x="4" width="45" height="45" rx="10" fill="#FFE37F"/>
<rect x="4" width="45" height="45" rx="10" fill="url(#paint0_linear_2081_14150)"/>
<rect x="4.75" y="0.75" width="43.5" height="43.5" rx="9.25" stroke="#2D2D2D" stroke-width="1.5"/>
<path d="M13.0662 23.9858L14.7138 25.8079L17.1849 25.4807C18.0116 25.3713 18.6029 26.2392 18.1776 26.9379L16.9064 29.0263L17.9897 31.2127C18.3522 31.9443 17.6868 32.7599 16.8727 32.5821L14.4394 32.0506L12.6379 33.7291C12.0351 34.2907 11.0326 33.9268 10.9548 33.1182L10.7221 30.7014L8.52541 29.5523C7.79045 29.1679 7.83619 28.1273 8.6022 27.8054L10.8917 26.8432L11.3356 24.4545C11.4841 23.6553 12.5149 23.3762 13.0662 23.9858ZM40.934 23.8053L39.2863 25.6273L36.8152 25.3001C35.9885 25.1906 35.3971 26.0585 35.8224 26.7572L37.0936 28.8456L36.0102 31.032C35.6477 31.7635 36.313 32.5792 37.1272 32.4014L39.5605 31.87L41.3619 33.5486C41.9647 34.1102 42.9672 33.7463 43.0451 32.9377L43.2778 30.5209L45.4746 29.3719C46.2095 28.9875 46.1638 27.947 45.3978 27.625L43.1084 26.6627L42.6645 24.274C42.5161 23.4749 41.4853 23.1956 40.934 23.8053ZM25.8358 18.5783L24.428 21.4125L21.2237 21.84C20.1517 21.983 19.7229 23.2675 20.5038 23.9966L22.838 26.1756L22.2655 29.274C22.0739 30.3106 23.1965 31.1045 24.1502 30.6069L27.0006 29.1194L29.851 30.6069C30.8047 31.1045 31.9273 30.3106 31.7357 29.274L31.1632 26.1756L33.4973 23.9966C34.2783 23.2675 33.8495 21.983 32.7774 21.84L29.5732 21.4125L28.1654 18.5783C27.6944 17.6301 26.3068 17.6301 25.8358 18.5783ZM27.6336 13.9494V11.6165C27.6336 11.2757 27.3509 11 27.0008 11C26.6508 11 26.3675 11.2757 26.3675 11.6165V13.9494C26.3675 14.2902 26.6508 14.5659 27.0008 14.5659C27.3509 14.5659 27.6336 14.2902 27.6336 13.9494ZM21.7225 15.8946C21.5679 15.8946 21.4126 15.8398 21.2902 15.729L19.6363 14.2269C19.3808 13.9946 19.3666 13.6044 19.6053 13.3552C19.8447 13.1077 20.2449 13.0933 20.5009 13.3251L22.1548 14.8272C22.4103 15.0596 22.4245 15.4497 22.1858 15.6989C22.0608 15.829 21.892 15.8946 21.7225 15.8946ZM17.2303 19.4683C17.1499 19.4683 17.0682 19.4533 16.9897 19.422L15.6525 18.8867C15.329 18.7573 15.1743 18.3973 15.3073 18.0824C15.4415 17.767 15.8126 17.6195 16.1336 17.7465L17.4709 18.2817C17.7943 18.4111 17.949 18.7712 17.816 19.086C17.7152 19.3244 17.4789 19.4683 17.2303 19.4683ZM36.7714 19.4683C36.5228 19.4683 36.2865 19.3244 36.1851 19.086C36.0527 18.7712 36.2073 18.4111 36.5302 18.2817L37.8674 17.7465C38.194 17.6201 38.5614 17.767 38.695 18.0824C38.8273 18.3973 38.6727 18.7573 38.3499 18.8867L37.0126 19.422C36.9335 19.4533 36.8518 19.4683 36.7714 19.4683ZM32.2786 15.8946C32.1091 15.8946 31.9396 15.829 31.8159 15.6989C31.5772 15.4497 31.5908 15.0596 31.8469 14.8272L33.5008 13.3251C33.7556 13.0927 34.1588 13.1065 34.3951 13.3552C34.6339 13.6044 34.6203 13.9946 34.3642 14.2269L32.7103 15.729C32.5891 15.8398 32.4332 15.8946 32.2786 15.8946Z" fill="#2D2D2D"/>
</g>
<defs>
<filter id="filter0_d_2081_14150" x="0" y="0" width="53" height="53" filterUnits="userSpaceOnUse" color-interpolation-filters="sRGB">
<feFlood flood-opacity="0" result="BackgroundImageFix"/>
<feColorMatrix in="SourceAlpha" type="matrix" values="0 0 0 0 0 0 0 0 0 0 0 0 0 0 0 0 0 0 127 0" result="hardAlpha"/>
<feOffset dy="4"/>
<feGaussianBlur stdDeviation="2"/>
<feComposite in2="hardAlpha" operator="out"/>
<feColorMatrix type="matrix" values="0 0 0 0 0 0 0 0 0 0 0 0 0 0 0 0 0 0 0.18 0"/>
<feBlend mode="normal" in2="BackgroundImageFix" result="effect1_dropShadow_2081_14150"/>
<feBlend mode="normal" in="SourceGraphic" in2="effect1_dropShadow_2081_14150" result="shape"/>
</filter>
<linearGradient id="paint0_linear_2081_14150" x1="26.5" y1="45" x2="26.5" y2="0" gradientUnits="userSpaceOnUse">
<stop stop-color="#E00051"/>
<stop offset="0.0001" stop-color="#E00051" stop-opacity="0.5"/>
<stop offset="0.0964166" stop-color="#E00051" stop-opacity="0.25"/>
<stop offset="0.991417" stop-color="#E00051" stop-opacity="0"/>
</linearGradient>
</defs>
</svg>
