<svg width="53" height="53" viewBox="0 0 53 53" fill="none" xmlns="http://www.w3.org/2000/svg">
<g filter="url(#filter0_d_2081_14389)">
<rect x="4" width="45" height="45" rx="10" fill="#99F0EE"/>
<rect x="4" width="45" height="45" rx="10" fill="url(#paint0_linear_2081_14389)"/>
<rect x="4.75" y="0.75" width="43.5" height="43.5" rx="9.25" stroke="#2D2D2D" stroke-width="1.5"/>
<path d="M24.5036 34.4892H16.0715C13.7442 34.4892 11.8547 32.5763 11.8547 30.22V14.8548C11.8547 12.4985 13.7442 10.5857 16.0715 10.5857H18.6013V11.4388C18.6013 11.9175 18.9729 12.292 19.444 12.292C19.9168 12.292 20.2867 11.9158 20.2867 11.4388V10.5857H32.0928V11.4388C32.0928 11.9175 32.4644 12.292 32.9356 12.292C33.4083 12.292 33.7783 11.9158 33.7783 11.4388V10.5857H36.308C38.6354 10.5857 40.5248 12.4985 40.5248 14.8548V21.6851C40.5248 22.1637 40.8964 22.5382 41.3676 22.5382C41.8403 22.5382 42.2103 22.1621 42.2103 21.6851V14.8548C42.2103 11.5589 39.5619 8.87931 36.308 8.87931H33.7783V8.02614C33.7783 7.54752 33.4067 7.17297 32.9356 7.17297C32.4628 7.17297 32.0928 7.54914 32.0928 8.02614V8.87931H20.2867V8.02614C20.2867 7.54752 19.9152 7.17297 19.444 7.17297C18.9713 7.17297 18.6013 7.54914 18.6013 8.02614V8.87931H16.0715C12.816 8.87931 10.1693 11.5605 10.1693 14.8548V30.2217C10.1693 33.5176 12.8177 36.1971 16.0715 36.1971H24.5036C24.9763 36.1971 25.3463 35.821 25.3463 35.344C25.3463 34.8653 24.9747 34.4908 24.5036 34.4908V34.4892Z" fill="#2D2D2D"/>
<path d="M38.8392 14.8548C38.8392 14.3761 38.4677 14.0016 37.9965 14.0016L14.3843 14C13.9116 14 13.5416 14.3762 13.5416 14.8532C13.5416 15.3318 13.9132 15.7063 14.3843 15.7063H37.9949C38.4677 15.7063 38.8376 15.3302 38.8376 14.8532L38.8392 14.8548Z" fill="#2D2D2D"/>
<path d="M20.2882 20.8302C20.2882 19.8906 19.5293 19.1222 18.6011 19.1222H16.9141C15.986 19.1222 15.2271 19.8906 15.2271 20.8302V22.5382C15.2271 23.4778 15.986 24.2462 16.9141 24.2462H18.6011C19.5293 24.2462 20.2882 23.4778 20.2882 22.5382V20.8302ZM18.6011 23.3914V22.5382H16.9141V20.8302H18.6011V23.3914Z" fill="#2D2D2D"/>
<path d="M25.3478 19.1222H23.6608C22.7327 19.1222 21.9738 19.8906 21.9738 20.8302V22.5382C21.9738 23.4778 22.7327 24.2462 23.6608 24.2462H25.3478C26.276 24.2462 27.0349 23.4778 27.0349 22.5382V20.8302C27.0349 19.8906 26.276 19.1222 25.3478 19.1222ZM25.3478 23.3914V22.5382H23.6608V20.8302H25.3478V23.3914Z" fill="#2D2D2D"/>
<path d="M25.3478 27.6605C25.8206 27.6605 26.1906 27.2844 26.1906 26.8074C26.1906 26.3287 25.819 25.9542 25.3478 25.9542H23.6608C22.7327 25.9542 21.9738 26.7225 21.9738 27.6622V29.3701C21.9738 30.3098 22.7327 31.0781 23.6608 31.0781H25.3478C25.8206 31.0781 26.1906 30.702 26.1906 30.225C26.1906 29.7463 25.819 29.3718 25.3478 29.3718H23.6608V27.6638H25.3478V27.6605Z" fill="#2D2D2D"/>
<path d="M18.6011 25.9526H16.9141C15.986 25.9526 15.2271 26.7209 15.2271 27.6606V29.3685C15.2271 30.3082 15.986 31.0765 16.9141 31.0765H18.6011C19.5293 31.0765 20.2882 30.3082 20.2882 29.3685V27.6606C20.2882 26.7209 19.5293 25.9526 18.6011 25.9526ZM18.6011 30.2217V29.3685H16.9141V27.6606H18.6011V30.2217Z" fill="#2D2D2D"/>
<path d="M41.9255 32.3218L40.5263 31.5358L40.9484 31.4158C41.4038 31.2797 41.6568 30.8187 41.5224 30.3577C41.388 29.9143 40.9152 29.6406 40.4773 29.7767L38.4203 30.3737L37.1886 29.6902C37.1886 29.6902 37.1206 29.6902 37.1048 29.6566C37.1554 29.4005 37.1886 29.162 37.1728 28.9058L38.4203 28.2399L40.4267 28.837C40.4267 28.837 40.5785 28.8706 40.6623 28.8706C41.0338 28.8706 41.3706 28.6321 41.4718 28.2559C41.6062 27.7949 41.3374 27.3339 40.8978 27.1979L40.5769 27.113L42.0615 26.3271C42.4837 26.1046 42.6355 25.5923 42.4157 25.1826C42.1959 24.7551 41.69 24.6015 41.2852 24.824L39.633 25.6948L39.7847 25.149C39.9191 24.6879 39.6503 24.2269 39.2108 24.0909C38.7554 23.9548 38.3001 24.2269 38.1657 24.672L37.5586 26.7897L36.5135 27.3532C36.5135 27.3532 36.4803 27.302 36.4629 27.2683C36.1767 26.9786 35.8383 26.7737 35.4684 26.6537V25.5956L36.9862 24.0589C37.323 23.718 37.323 23.1881 36.9862 22.8472C36.6494 22.5062 36.1261 22.5062 35.7893 22.8472L35.4684 23.1721V21.669C35.4684 21.1904 35.0968 20.8159 34.6257 20.8159C34.1529 20.8159 33.7829 21.192 33.7829 21.669V23.1721L33.462 22.8472C33.1252 22.5062 32.6019 22.5062 32.2651 22.8472C31.9283 23.1881 31.9283 23.718 32.2651 24.0589L33.783 25.5956V26.6537C33.4462 26.7737 33.1426 26.961 32.8722 27.1995L31.9109 26.6873L31.3038 24.5695C31.1694 24.1085 30.7141 23.8524 30.2587 23.9884C29.8207 24.1245 29.5504 24.5855 29.6847 25.0465L29.8539 25.6099L28.3361 24.824C27.9139 24.6015 27.4079 24.7728 27.2056 25.1825C26.9858 25.6099 27.155 26.1222 27.5597 26.3271L28.8578 27.0106L28.5542 27.0954C28.1163 27.2315 27.8459 27.6925 27.9803 28.1535C28.0815 28.5297 28.4182 28.7682 28.7898 28.7682C28.8736 28.7682 28.9416 28.7682 29.0254 28.7345L31.016 28.1535L32.0959 28.7169C32.0453 29.0419 32.0627 29.3492 32.1133 29.6566L31.0508 30.2889L28.9432 29.6742C28.5053 29.5381 28.0325 29.8102 27.8981 30.2553C27.7637 30.6986 28.0325 31.1773 28.4721 31.3133L29.046 31.4846L27.6973 32.2865C27.2926 32.525 27.1582 33.0549 27.3938 33.447C27.5456 33.7208 27.8317 33.8745 28.1195 33.8745C28.2713 33.8745 28.4057 33.8408 28.5417 33.7544L29.6722 33.0885L29.5884 33.3782C29.454 33.8392 29.7228 34.3002 30.1623 34.4363C30.2461 34.4539 30.3141 34.4699 30.3979 34.4699C30.7695 34.4699 31.1063 34.2314 31.2074 33.8552L31.7814 31.8399L32.9277 31.1564C33.1633 31.3613 33.451 31.515 33.7372 31.6174V33.1541L32.2193 34.6908C31.8826 35.0317 31.8826 35.5616 32.2193 35.9025C32.5561 36.2434 33.0795 36.2435 33.4162 35.9025L33.7372 35.5776V37.0806C33.7372 37.5593 34.1088 37.9338 34.5799 37.9338C35.0527 37.9338 35.4226 37.5576 35.4226 37.0806V35.5776L35.7436 35.9025C35.9128 36.0738 36.131 36.1586 36.3333 36.1586C36.5357 36.1586 36.7713 36.0738 36.9231 35.9025C37.2598 35.5616 37.2598 35.0317 36.9231 34.6908L35.4052 33.1541V31.6174C35.7088 31.515 35.9949 31.3437 36.2479 31.1228C36.2811 31.1404 36.2985 31.174 36.3317 31.1916L37.5634 31.8751L38.1531 33.9577C38.2543 34.3338 38.5911 34.5723 38.9627 34.5723C39.0465 34.5723 39.1145 34.5723 39.1983 34.5387C39.6536 34.4027 39.9066 33.9417 39.7722 33.4807L39.6536 33.0373L41.0529 33.8232C41.1873 33.8921 41.3233 33.9257 41.4576 33.9257C41.7612 33.9257 42.0474 33.772 42.1992 33.4823C42.4189 33.0725 42.2672 32.5427 41.8624 32.3218L41.9255 32.3218ZM35.2644 29.7767C35.0952 29.948 34.8596 30.0504 34.624 30.0504C34.3884 30.0504 34.1513 29.948 33.9837 29.7767C33.6295 29.4181 33.6295 28.8211 33.9837 28.4625C34.1529 28.2912 34.3885 28.1888 34.624 28.1888C34.8596 28.1888 35.0968 28.2912 35.2644 28.4625C35.6185 28.8211 35.6185 29.4181 35.2644 29.7767Z" fill="#2D2D2D"/>
</g>
<defs>
<filter id="filter0_d_2081_14389" x="0" y="0" width="53" height="53" filterUnits="userSpaceOnUse" color-interpolation-filters="sRGB">
<feFlood flood-opacity="0" result="BackgroundImageFix"/>
<feColorMatrix in="SourceAlpha" type="matrix" values="0 0 0 0 0 0 0 0 0 0 0 0 0 0 0 0 0 0 127 0" result="hardAlpha"/>
<feOffset dy="4"/>
<feGaussianBlur stdDeviation="2"/>
<feComposite in2="hardAlpha" operator="out"/>
<feColorMatrix type="matrix" values="0 0 0 0 0 0 0 0 0 0 0 0 0 0 0 0 0 0 0.18 0"/>
<feBlend mode="normal" in2="BackgroundImageFix" result="effect1_dropShadow_2081_14389"/>
<feBlend mode="normal" in="SourceGraphic" in2="effect1_dropShadow_2081_14389" result="shape"/>
</filter>
<linearGradient id="paint0_linear_2081_14389" x1="26.5" y1="45" x2="26.5" y2="0" gradientUnits="userSpaceOnUse">
<stop stop-color="#E00051"/>
<stop offset="0.0001" stop-color="#E00051" stop-opacity="0.5"/>
<stop offset="0.0964166" stop-color="#E00051" stop-opacity="0.25"/>
<stop offset="0.991417" stop-color="#E00051" stop-opacity="0"/>
</linearGradient>
</defs>
</svg>
