<svg width="53" height="53" viewBox="0 0 53 53" fill="none" xmlns="http://www.w3.org/2000/svg">
<g filter="url(#filter0_d_2081_15950)">
<rect x="4" width="45" height="45" rx="10" fill="#FFC758"/>
<rect x="4" width="45" height="45" rx="10" fill="url(#paint0_linear_2081_15950)"/>
<rect x="4.75" y="0.75" width="43.5" height="43.5" rx="9.25" stroke="#2D2D2D" stroke-width="1.5"/>
<g clip-path="url(#clip0_2081_15950)">
<path fill-rule="evenodd" clip-rule="evenodd" d="M14.1628 23.5C14.1628 16.1343 20.1343 10.1628 27.5 10.1628C34.8657 10.1628 40.8372 16.1343 40.8372 23.5C40.8372 30.8657 34.8657 36.8372 27.5 36.8372C20.1343 36.8372 14.1628 30.8657 14.1628 23.5ZM27.5 8C18.939 8 12 14.939 12 23.5C12 32.061 18.939 39 27.5 39C36.061 39 43 32.061 43 23.5C43 14.939 36.061 8 27.5 8ZM32.907 24.532C33.504 24.532 33.9884 25.0164 33.9884 25.6134C33.9884 29.363 31.0343 32.4622 27.3198 32.4622C23.6053 32.4622 20.6512 29.3631 20.6512 25.6134C20.6512 25.3276 20.7652 25.0516 20.968 24.8488C21.1707 24.6461 21.4467 24.532 21.7326 24.532H25.164H27.3198L32.907 24.532ZM27.3198 30.2995C29.4263 30.2995 31.2341 28.7802 31.7059 26.6948H25.1642H22.9338C23.4055 28.7802 25.2133 30.2995 27.3198 30.2995ZM24.8176 20.1769C24.8176 20.543 24.6318 20.8851 24.3234 21.0837L20.4808 23.5703C19.9796 23.8956 19.3107 23.7519 18.9855 23.2507C18.6616 22.7494 18.8053 22.0791 19.3065 21.7553L21.7467 20.1769L19.3065 18.597C18.8053 18.2732 18.6616 17.6029 18.9855 17.1017C19.3108 16.6004 19.9796 16.4568 20.4808 16.782L24.3234 19.2687C24.6318 19.4672 24.8176 19.8094 24.8176 20.1769ZM30.6766 21.0837C30.3683 20.8851 30.1824 20.543 30.1824 20.1769C30.1824 19.8094 30.3683 19.4672 30.6766 19.2687L34.5192 16.782C35.0205 16.4568 35.6893 16.6004 36.0145 17.1017C36.3384 17.6029 36.1948 18.2732 35.6935 18.597L33.2533 20.1769L35.6935 21.7553C36.1948 22.0792 36.3384 22.7494 36.0145 23.2507C35.6893 23.7519 35.0205 23.8956 34.5192 23.5703L30.6766 21.0837Z" fill="#2D2D2D"/>
</g>
</g>
<defs>
<filter id="filter0_d_2081_15950" x="0" y="0" width="53" height="53" filterUnits="userSpaceOnUse" color-interpolation-filters="sRGB">
<feFlood flood-opacity="0" result="BackgroundImageFix"/>
<feColorMatrix in="SourceAlpha" type="matrix" values="0 0 0 0 0 0 0 0 0 0 0 0 0 0 0 0 0 0 127 0" result="hardAlpha"/>
<feOffset dy="4"/>
<feGaussianBlur stdDeviation="2"/>
<feComposite in2="hardAlpha" operator="out"/>
<feColorMatrix type="matrix" values="0 0 0 0 0 0 0 0 0 0 0 0 0 0 0 0 0 0 0.18 0"/>
<feBlend mode="normal" in2="BackgroundImageFix" result="effect1_dropShadow_2081_15950"/>
<feBlend mode="normal" in="SourceGraphic" in2="effect1_dropShadow_2081_15950" result="shape"/>
</filter>
<linearGradient id="paint0_linear_2081_15950" x1="26.5" y1="45" x2="26.5" y2="0" gradientUnits="userSpaceOnUse">
<stop stop-color="#E00051"/>
<stop offset="0.0001" stop-color="#E00051" stop-opacity="0.5"/>
<stop offset="0.0964166" stop-color="#E00051" stop-opacity="0.25"/>
<stop offset="0.991417" stop-color="#E00051" stop-opacity="0"/>
</linearGradient>
<clipPath id="clip0_2081_15950">
<rect width="31" height="31" fill="white" transform="translate(12 8)"/>
</clipPath>
</defs>
</svg>
