<svg width="53" height="53" viewBox="0 0 53 53" fill="none" xmlns="http://www.w3.org/2000/svg">
<g filter="url(#filter0_d_2081_13582)">
<rect x="4" width="45" height="45" rx="10" fill="#E58AE8"/>
<rect x="4" width="45" height="45" rx="10" fill="url(#paint0_linear_2081_13582)"/>
<rect x="4.75" y="0.75" width="43.5" height="43.5" rx="9.25" stroke="#2D2D2D" stroke-width="1.5"/>
<g clip-path="url(#clip0_2081_13582)">
<g clip-path="url(#clip1_2081_13582)">
<path d="M28.5307 40.5837C28.163 40.4925 27.8317 40.2917 27.5806 40.0081C27.3295 39.7244 27.1705 39.3712 27.1245 38.9952L25.8922 29.3175C25.8806 29.2265 25.887 29.1341 25.9112 29.0456C25.9353 28.9571 25.9766 28.8742 26.0327 28.8017C26.1461 28.6552 26.3131 28.5597 26.4969 28.5363C26.6806 28.5129 26.8662 28.5635 27.0127 28.6769C27.1592 28.7903 27.2546 28.9572 27.278 29.141L28.5102 38.8209C28.51 38.8227 28.5096 38.8244 28.509 38.826C28.5239 38.9497 28.5872 39.0624 28.685 39.1396C28.7828 39.2167 28.9072 39.252 29.0309 39.2378L40.6122 37.8629C40.7358 37.8479 40.8484 37.7845 40.9254 37.6867C41.0025 37.5888 41.0376 37.4644 41.0232 37.3408L39.2034 21.9947C39.1884 21.8712 39.1251 21.7586 39.0273 21.6816C38.9296 21.6046 38.8053 21.5694 38.6816 21.5839L28.9197 22.7423C28.8284 22.7531 28.736 22.7457 28.6476 22.7208C28.5592 22.6958 28.4765 22.6537 28.4044 22.5968C28.3323 22.5399 28.2721 22.4693 28.2272 22.3891C28.1824 22.309 28.1537 22.2207 28.143 22.1295C28.1322 22.0383 28.1395 21.9458 28.1645 21.8574C28.1895 21.769 28.2316 21.6864 28.2885 21.6142C28.3454 21.5421 28.416 21.4819 28.4961 21.4371C28.5763 21.3922 28.6645 21.3636 28.7558 21.3528L38.5172 20.1947C39.0087 20.1369 39.503 20.2763 39.8918 20.5825C40.2807 20.8886 40.5322 21.3364 40.5914 21.8277L42.4126 37.1768C42.4701 37.6683 42.3304 38.1625 42.0243 38.5512C41.7181 38.9399 41.2704 39.1915 40.7792 39.2509L29.198 40.6254C28.9749 40.652 28.7488 40.6379 28.5307 40.5837Z" fill="#2D2D2D"/>
<path d="M32.7217 28.6473C32.2579 28.5334 31.8342 28.2948 31.4964 27.9573C31.1586 27.6197 30.9197 27.1962 30.8055 26.7325C30.6913 26.2688 30.7062 25.7827 30.8486 25.3269C30.991 24.8711 31.2555 24.463 31.6133 24.1468C31.9712 23.8306 32.4088 23.6184 32.8786 23.5332C33.3485 23.448 33.8327 23.4931 34.2788 23.6635C34.7249 23.8339 35.1158 24.1232 35.4092 24.5C35.7026 24.8768 35.8872 25.3267 35.9431 25.8009C35.9925 26.2205 35.9396 26.6458 35.7888 27.0405C35.638 27.4351 35.3939 27.7874 35.0773 28.0672C34.7607 28.3469 34.3811 28.5458 33.9708 28.6468C33.5606 28.7479 33.132 28.748 32.7217 28.6473ZM33.6415 24.9247C33.3893 24.8621 33.1237 24.8818 32.8834 24.9808C32.6432 25.0798 32.4409 25.253 32.3061 25.4751C32.1712 25.6972 32.1109 25.9566 32.1339 26.2154C32.1568 26.4742 32.2619 26.7189 32.4338 26.9138C32.6057 27.1087 32.8353 27.2435 33.0892 27.2987C33.3432 27.3538 33.6081 27.3264 33.8453 27.2203C34.0825 27.1143 34.2796 26.9352 34.4079 26.7093C34.5361 26.4833 34.5888 26.2222 34.5582 25.9642C34.5286 25.7185 34.4251 25.4876 34.2614 25.3019C34.0977 25.1163 33.8815 24.9848 33.6415 24.9247Z" fill="#2D2D2D"/>
<path d="M30.382 32.8451C30.2225 32.8065 30.0817 32.7129 29.9843 32.5808C29.8869 32.4488 29.8391 32.2866 29.8493 32.1228C29.8595 31.959 29.9271 31.8041 30.0401 31.6851C30.1532 31.5662 30.3045 31.4908 30.4676 31.4723L37.9407 30.5852C38.1228 30.567 38.3047 30.621 38.4474 30.7356C38.5901 30.8502 38.6821 31.0162 38.7036 31.1979C38.7252 31.3796 38.6746 31.5625 38.5627 31.7073C38.4508 31.8521 38.2865 31.9472 38.1053 31.9721L30.6318 32.8605C30.5483 32.8704 30.4637 32.8652 30.382 32.8451Z" fill="#2D2D2D"/>
<path d="M30.826 36.5916C30.6665 36.5531 30.5256 36.4596 30.4281 36.3275C30.3306 36.1955 30.2828 36.0333 30.2929 35.8695C30.3031 35.7056 30.3706 35.5506 30.4837 35.4316C30.5967 35.3126 30.7481 35.2372 30.9112 35.2187L38.3846 34.3321C38.5667 34.314 38.7486 34.368 38.8913 34.4826C39.034 34.5972 39.126 34.7632 39.1475 34.9449C39.1691 35.1266 39.1185 35.3095 39.0066 35.4543C38.8947 35.599 38.7304 35.6941 38.5492 35.7191L31.0763 36.6049C30.9928 36.6156 30.908 36.6111 30.826 36.5916Z" fill="#2D2D2D"/>
<path d="M19.7574 38.6683C19.5198 38.6093 19.292 38.5162 19.0811 38.392L10.1587 33.1491C9.58255 32.8095 9.1646 32.2552 8.99654 31.6079C8.82849 30.9605 8.92405 30.2729 9.26227 29.6959L16.4242 17.5124C16.5996 17.2153 16.8338 16.9571 17.1125 16.7538C17.3913 16.5505 17.7086 16.4063 18.0451 16.33L24.9641 14.7736C25.5891 14.6346 26.2434 14.7377 26.7953 15.0621C27.3472 15.3866 27.7555 15.9082 27.9379 16.5219L29.9414 23.3243C30.0381 23.6554 30.0661 24.0029 30.0238 24.3452C29.9814 24.6876 29.8695 25.0177 29.695 25.3153L22.5341 37.4964C22.2585 37.964 21.8397 38.3305 21.3396 38.5416C20.8395 38.7527 20.2847 38.7971 19.7574 38.6683ZM19.7891 37.1878C20.0464 37.3389 20.3531 37.3818 20.6419 37.3069C20.9306 37.2321 21.1779 37.0457 21.3294 36.7886L28.4916 24.6074C28.569 24.4748 28.6187 24.3279 28.6374 24.1755C28.6562 24.0231 28.6438 23.8685 28.6009 23.7211L26.5989 16.9168C26.5174 16.6429 26.3351 16.4101 26.0887 16.2653C25.8424 16.1205 25.5503 16.0744 25.2713 16.1365L18.3527 17.693C18.2023 17.727 18.0604 17.7916 17.9359 17.8827C17.8114 17.9737 17.7069 18.0893 17.6288 18.2223L10.467 30.4019C10.3161 30.6594 10.2735 30.9662 10.3485 31.2551C10.4236 31.544 10.6101 31.7913 10.8673 31.9428L19.7891 37.1878Z" fill="#2D2D2D"/>
<path d="M22.9995 22.9878C22.466 22.8559 21.9876 22.5592 21.6323 22.14C21.2769 21.7207 21.0627 21.2002 21.0199 20.6523C20.9771 20.1044 21.108 19.557 21.3939 19.0876C21.6799 18.6183 22.1064 18.251 22.6129 18.0378C23.1194 17.8246 23.6802 17.7763 24.2157 17.8999C24.7512 18.0234 25.2342 18.3125 25.5961 18.7261C25.958 19.1397 26.1805 19.6567 26.2319 20.2039C26.2833 20.751 26.1611 21.3005 25.8826 21.7743C25.5977 22.261 25.1628 22.6422 24.6431 22.861C24.1233 23.0798 23.5466 23.1243 22.9995 22.9878ZM23.9193 19.2648C23.6189 19.19 23.3014 19.2317 23.0305 19.3815C22.7596 19.5313 22.5555 19.7782 22.4592 20.0723C22.3629 20.3665 22.3815 20.6863 22.5114 20.9673C22.6412 21.2483 22.8727 21.4697 23.1591 21.587C23.4456 21.7043 23.7658 21.7088 24.0555 21.5996C24.3451 21.4904 24.5827 21.2755 24.7204 20.9983C24.8581 20.721 24.8857 20.402 24.7977 20.1052C24.7097 19.8084 24.5126 19.5559 24.246 19.3986C24.1441 19.3382 24.0339 19.2931 23.9189 19.2647L23.9193 19.2648Z" fill="#2D2D2D"/>
<path d="M17.4595 31.9042C17.0151 31.7945 16.6173 31.5458 16.324 31.1943C16.0307 30.8428 15.8573 30.4069 15.8289 29.95C15.8219 29.8578 15.8333 29.7651 15.8624 29.6773C15.8915 29.5895 15.9377 29.5083 15.9984 29.4385C16.0591 29.3687 16.1331 29.3117 16.216 29.2708C16.299 29.2298 16.3892 29.2057 16.4815 29.1999C16.5738 29.1941 16.6664 29.2067 16.7538 29.2369C16.8412 29.2672 16.9217 29.3145 16.9907 29.3761C17.0597 29.4377 17.1157 29.5124 17.1556 29.5959C17.1955 29.6794 17.2184 29.7699 17.223 29.8623C17.2306 29.9869 17.2691 30.1076 17.3349 30.2136C17.4007 30.3196 17.4919 30.4075 17.6001 30.4696C17.7084 30.5316 17.8304 30.5658 17.9551 30.569C18.0799 30.5722 18.2035 30.5444 18.3148 30.488C18.4261 30.4317 18.5217 30.3485 18.5929 30.246C18.6641 30.1436 18.7088 30.025 18.7228 29.901C18.7369 29.777 18.7199 29.6515 18.6734 29.5357C18.6269 29.4199 18.5524 29.3175 18.4565 29.2376C18.4144 29.2097 18.3728 29.1796 18.3329 29.1482C18.0492 28.9277 17.8252 28.6397 17.6815 28.3104C17.5378 27.981 17.4789 27.621 17.5102 27.263C17.5415 26.9051 17.6621 26.5607 17.8608 26.2613C18.0595 25.962 18.3301 25.7172 18.6478 25.5494C18.9655 25.3816 19.3203 25.2961 19.6795 25.3007C20.0388 25.3053 20.3912 25.3999 20.7045 25.5758C21.0178 25.7517 21.2821 26.0033 21.473 26.3076C21.664 26.612 21.7757 26.9593 21.7978 27.318C21.7998 27.4968 21.7331 27.6696 21.6115 27.8008C21.4899 27.9319 21.3225 28.0114 21.144 28.0228C20.9655 28.0342 20.7894 27.9767 20.6521 27.8622C20.5147 27.7476 20.4265 27.5847 20.4057 27.407C20.3981 27.2814 20.3592 27.1597 20.2924 27.053C20.2257 26.9463 20.1333 26.8581 20.0237 26.7963C19.914 26.7346 19.7906 26.7013 19.6648 26.6995C19.539 26.6977 19.4147 26.7274 19.3034 26.786C19.192 26.8446 19.0971 26.9302 19.0273 27.035C18.9576 27.1397 18.9152 27.2602 18.904 27.3856C18.8928 27.5109 18.9133 27.6371 18.9634 27.7525C19.0135 27.8679 19.0918 27.9689 19.1911 28.0463C19.2085 28.0601 19.2266 28.073 19.2454 28.0849C19.2628 28.0964 19.2801 28.1083 19.2962 28.1213C19.6844 28.424 19.957 28.8507 20.0684 29.3302C20.1799 29.8097 20.1233 30.313 19.9083 30.7558C19.6933 31.1987 19.3328 31.5543 18.8871 31.7633C18.4414 31.9724 17.9375 32.0221 17.4595 31.9042Z" fill="#2D2D2D"/>
<path d="M20.1128 26.8216C20.007 26.7956 19.9089 26.7452 19.8261 26.6744C19.7433 26.6037 19.6782 26.5146 19.6359 26.4142C19.5937 26.3138 19.5756 26.2049 19.5829 26.0963C19.5903 25.9876 19.6229 25.8822 19.6783 25.7884L20.2554 24.8068C20.3019 24.7276 20.3636 24.6584 20.4369 24.603C20.5102 24.5477 20.5937 24.5073 20.6827 24.4842C20.7716 24.4611 20.8642 24.4558 20.9552 24.4685C21.0462 24.4812 21.1337 24.5117 21.2129 24.5582C21.2921 24.6048 21.3614 24.6665 21.4168 24.7398C21.4721 24.8131 21.5125 24.8966 21.5356 24.9856C21.5587 25.0745 21.564 25.1671 21.5513 25.2581C21.5386 25.3491 21.5081 25.4366 21.4615 25.5158L20.8845 26.4974C20.8081 26.6276 20.6917 26.7295 20.5526 26.7879C20.4135 26.8464 20.2592 26.8582 20.1128 26.8216Z" fill="#2D2D2D"/>
<path d="M16.6075 32.7864C16.5419 32.7703 16.479 32.7446 16.4209 32.7102C16.3418 32.6637 16.2727 32.6021 16.2174 32.5289C16.1621 32.4557 16.1219 32.3723 16.0988 32.2835C16.0758 32.1947 16.0705 32.1023 16.0832 32.0114C16.0959 31.9206 16.1263 31.8331 16.1728 31.7541L16.7499 30.7725C16.7964 30.6934 16.858 30.6243 16.9312 30.569C17.0044 30.5138 17.0878 30.4735 17.1766 30.4504C17.2653 30.4274 17.3578 30.4221 17.4486 30.4348C17.5395 30.4475 17.6269 30.4779 17.706 30.5244C17.7851 30.5709 17.8542 30.6325 17.9095 30.7057C17.9647 30.7789 18.005 30.8623 18.028 30.9511C18.0511 31.0399 18.0564 31.1323 18.0437 31.2232C18.031 31.314 18.0005 31.4015 17.9541 31.4805L17.377 32.4621C17.3008 32.5918 17.1847 32.6935 17.0461 32.7519C16.9074 32.8103 16.7536 32.8225 16.6075 32.7864Z" fill="#2D2D2D"/>
<path d="M31.2394 11.6026C30.4596 11.4099 29.8094 10.8203 29.4556 9.98461C29.1257 9.20659 29.0681 8.27684 29.2929 7.36695C29.5177 6.45707 30.002 5.66166 30.6559 5.12624C31.3582 4.55151 32.2082 4.33255 32.988 4.52521C33.7678 4.71787 34.418 5.3075 34.7719 6.14273C35.1017 6.92118 35.1593 7.85093 34.9346 8.76039C34.7099 9.66985 34.2254 10.4661 33.5716 11.0011C32.8693 11.5758 32.0192 11.7952 31.2394 11.6026ZM32.6529 5.88135C31.8588 5.68512 30.941 6.51868 30.6488 7.70149C30.3565 8.88429 30.7803 10.0502 31.5745 10.2464C32.3687 10.4426 33.2864 9.60908 33.5788 8.42585C33.8711 7.24262 33.4471 6.07757 32.6529 5.88135Z" fill="#2D2D2D"/>
<path d="M33.7256 24.9482C33.5515 24.9054 33.4004 24.7972 33.3038 24.6461C33.2072 24.495 33.1725 24.3125 33.2067 24.1365C33.3533 23.3359 33.4091 22.4328 33.3717 21.4541C33.3726 21.4503 33.3715 21.4459 33.3717 21.4415C33.2485 18.249 32.1765 14.8622 31.4473 12.8977C31.2143 13.3017 30.9591 13.6925 30.6828 14.0682C29.9889 15.0258 29.0259 16.1445 27.8258 17.3908C27.1256 18.1172 26.35 18.8833 25.522 19.663C25.4552 19.7259 25.3767 19.7751 25.2909 19.8076C25.2052 19.8402 25.1139 19.8555 25.0222 19.8528C24.9305 19.8501 24.8402 19.8293 24.7566 19.7917C24.6729 19.7541 24.5975 19.7003 24.5346 19.6336C24.4717 19.5668 24.4226 19.4883 24.39 19.4026C24.3574 19.3168 24.3421 19.2255 24.3448 19.1338C24.3476 19.0421 24.3683 18.9519 24.4059 18.8682C24.4436 18.7845 24.4973 18.7091 24.564 18.6462C25.3756 17.8822 26.1347 17.134 26.8196 16.4219C30.331 12.7748 30.7092 11.3623 30.7085 10.9246C30.7083 10.765 30.7628 10.6101 30.8629 10.4858C30.963 10.3614 31.1027 10.2751 31.2587 10.2412C31.4147 10.2073 31.5776 10.2279 31.7203 10.2995C31.8629 10.371 31.9768 10.4894 32.0428 10.6347C32.146 10.8616 34.5747 16.2555 34.7688 21.4013L34.7691 21.4145C34.8091 22.4941 34.7452 23.4968 34.5801 24.3962C34.5768 24.4098 34.5733 24.4239 34.5697 24.4386C34.525 24.6179 34.4111 24.7722 34.2529 24.8677C34.0947 24.9633 33.9051 24.9922 33.7256 24.9482Z" fill="#2D2D2D"/>
</g>
</g>
</g>
<defs>
<filter id="filter0_d_2081_13582" x="0" y="0" width="53" height="53" filterUnits="userSpaceOnUse" color-interpolation-filters="sRGB">
<feFlood flood-opacity="0" result="BackgroundImageFix"/>
<feColorMatrix in="SourceAlpha" type="matrix" values="0 0 0 0 0 0 0 0 0 0 0 0 0 0 0 0 0 0 127 0" result="hardAlpha"/>
<feOffset dy="4"/>
<feGaussianBlur stdDeviation="2"/>
<feComposite in2="hardAlpha" operator="out"/>
<feColorMatrix type="matrix" values="0 0 0 0 0 0 0 0 0 0 0 0 0 0 0 0 0 0 0.18 0"/>
<feBlend mode="normal" in2="BackgroundImageFix" result="effect1_dropShadow_2081_13582"/>
<feBlend mode="normal" in="SourceGraphic" in2="effect1_dropShadow_2081_13582" result="shape"/>
</filter>
<linearGradient id="paint0_linear_2081_13582" x1="26.5" y1="45" x2="26.5" y2="0" gradientUnits="userSpaceOnUse">
<stop stop-color="#E00051"/>
<stop offset="0.0001" stop-color="#E00051" stop-opacity="0.5"/>
<stop offset="0.0964166" stop-color="#E00051" stop-opacity="0.25"/>
<stop offset="0.991417" stop-color="#E00051" stop-opacity="0"/>
</linearGradient>
<clipPath id="clip0_2081_13582">
<rect width="38" height="38" fill="white" transform="translate(8 4)"/>
</clipPath>
<clipPath id="clip1_2081_13582">
<rect width="34.1954" height="36.3781" fill="white" transform="translate(16.3964 0.395966) rotate(13.8782)"/>
</clipPath>
</defs>
</svg>
