<svg width="252" height="52" viewBox="0 0 252 52" fill="none" xmlns="http://www.w3.org/2000/svg">
<g filter="url(#filter0_d_746_4757)">
<rect x="7" y="3" width="38" height="38" rx="19" fill="#AA1DA4"/>
<path d="M19.6841 20.539L24.702 26.2239L33.1051 17.2633" stroke="#FBFBFB" stroke-width="3.15789" stroke-linecap="round" stroke-linejoin="round"/>
</g>
<path d="M57 22H95" stroke="#AA1DA4" stroke-width="3" stroke-linecap="round"/>
<g filter="url(#filter1_d_746_4757)">
<rect x="107" y="3" width="38" height="38" rx="19" fill="#AA1DA4"/>
<path d="M119.684 20.539L124.702 26.2239L133.105 17.2633" stroke="#FBFBFB" stroke-width="3.15789" stroke-linecap="round" stroke-linejoin="round"/>
</g>
<path d="M157 22H195" stroke="#AA1DA4" stroke-width="3" stroke-linecap="round"/>
<g filter="url(#filter2_d_746_4757)">
<rect x="207" y="3" width="38" height="38" rx="19" fill="#AA1DA4"/>
<path d="M225.933 30.21C224.897 30.21 223.882 30.063 222.888 29.769C221.908 29.461 221.082 29.041 220.41 28.509L221.586 26.388C222.118 26.822 222.762 27.172 223.518 27.438C224.274 27.704 225.065 27.837 225.891 27.837C226.871 27.837 227.634 27.641 228.18 27.249C228.726 26.843 228.999 26.297 228.999 25.611C228.999 24.939 228.747 24.407 228.243 24.015C227.739 23.623 226.927 23.427 225.807 23.427H224.463V21.558L228.663 16.56L229.02 17.589H221.124V15.3H231.141V17.127L226.941 22.125L225.513 21.285H226.332C228.138 21.285 229.489 21.691 230.385 22.503C231.295 23.301 231.75 24.33 231.75 25.59C231.75 26.416 231.54 27.179 231.12 27.879C230.7 28.579 230.056 29.146 229.188 29.58C228.334 30 227.249 30.21 225.933 30.21Z" fill="#FBFBFB"/>
</g>
<defs>
<filter id="filter0_d_746_4757" x="0" y="0" width="52" height="52" filterUnits="userSpaceOnUse" color-interpolation-filters="sRGB">
<feFlood flood-opacity="0" result="BackgroundImageFix"/>
<feColorMatrix in="SourceAlpha" type="matrix" values="0 0 0 0 0 0 0 0 0 0 0 0 0 0 0 0 0 0 127 0" result="hardAlpha"/>
<feOffset dy="4"/>
<feGaussianBlur stdDeviation="3.5"/>
<feComposite in2="hardAlpha" operator="out"/>
<feColorMatrix type="matrix" values="0 0 0 0 0 0 0 0 0 0 0 0 0 0 0 0 0 0 0.18 0"/>
<feBlend mode="normal" in2="BackgroundImageFix" result="effect1_dropShadow_746_4757"/>
<feBlend mode="normal" in="SourceGraphic" in2="effect1_dropShadow_746_4757" result="shape"/>
</filter>
<filter id="filter1_d_746_4757" x="100" y="0" width="52" height="52" filterUnits="userSpaceOnUse" color-interpolation-filters="sRGB">
<feFlood flood-opacity="0" result="BackgroundImageFix"/>
<feColorMatrix in="SourceAlpha" type="matrix" values="0 0 0 0 0 0 0 0 0 0 0 0 0 0 0 0 0 0 127 0" result="hardAlpha"/>
<feOffset dy="4"/>
<feGaussianBlur stdDeviation="3.5"/>
<feComposite in2="hardAlpha" operator="out"/>
<feColorMatrix type="matrix" values="0 0 0 0 0 0 0 0 0 0 0 0 0 0 0 0 0 0 0.18 0"/>
<feBlend mode="normal" in2="BackgroundImageFix" result="effect1_dropShadow_746_4757"/>
<feBlend mode="normal" in="SourceGraphic" in2="effect1_dropShadow_746_4757" result="shape"/>
</filter>
<filter id="filter2_d_746_4757" x="200" y="0" width="52" height="52" filterUnits="userSpaceOnUse" color-interpolation-filters="sRGB">
<feFlood flood-opacity="0" result="BackgroundImageFix"/>
<feColorMatrix in="SourceAlpha" type="matrix" values="0 0 0 0 0 0 0 0 0 0 0 0 0 0 0 0 0 0 127 0" result="hardAlpha"/>
<feOffset dy="4"/>
<feGaussianBlur stdDeviation="3.5"/>
<feComposite in2="hardAlpha" operator="out"/>
<feColorMatrix type="matrix" values="0 0 0 0 0 0 0 0 0 0 0 0 0 0 0 0 0 0 0.18 0"/>
<feBlend mode="normal" in2="BackgroundImageFix" result="effect1_dropShadow_746_4757"/>
<feBlend mode="normal" in="SourceGraphic" in2="effect1_dropShadow_746_4757" result="shape"/>
</filter>
</defs>
</svg>
