<svg width="53" height="53" viewBox="0 0 53 53" fill="none" xmlns="http://www.w3.org/2000/svg">
<g filter="url(#filter0_d_2081_16115)">
<rect x="4" width="45" height="45" rx="10" fill="#FF7979"/>
<rect x="4" width="45" height="45" rx="10" fill="url(#paint0_linear_2081_16115)"/>
<rect x="4.75" y="0.75" width="43.5" height="43.5" rx="9.25" stroke="#2D2D2D" stroke-width="1.5"/>
<g clip-path="url(#clip0_2081_16115)">
<path d="M40.8893 13.9659H38.0978C38.3701 13.3532 38.5403 12.6383 38.5403 11.9234C38.5403 9.13188 36.2595 6.85103 33.468 6.85103C30.0637 6.85103 28.3616 8.79145 26.9999 11.0723C25.6382 8.79145 23.9361 6.85103 20.5318 6.85103C17.7403 6.85103 15.4595 9.13188 15.4595 11.9234C15.4595 12.6383 15.6297 13.3532 15.902 13.9659H13.1105C11.9871 13.9659 11.068 14.8851 11.068 16.0085V20.1617C11.068 20.7063 11.5105 21.1489 12.0552 21.1489H41.9446C42.4893 21.1489 42.9318 20.7063 42.9318 20.1617V16.0085C42.9318 14.8851 42.0127 13.9659 40.8893 13.9659ZM33.468 9.88082C34.5914 9.88082 35.5105 10.8 35.5105 11.9234C35.5105 13.0468 34.5914 13.9659 33.468 13.9659H28.8382C30.3361 11.2085 31.2212 9.88082 33.468 9.88082ZM18.4893 11.9234C18.4893 10.8 19.4084 9.88082 20.5318 9.88082C22.7786 9.88082 23.6637 11.2085 25.1616 13.9659H20.5318C19.4084 13.9659 18.4893 13.0468 18.4893 11.9234Z" fill="#2D2D2D"/>
<path d="M13.1106 36.6723C13.1106 38.0681 14.234 39.1915 15.6297 39.1915H25.5021V24.1787H13.1106V36.6723Z" fill="#2D2D2D"/>
<path d="M28.4979 39.1915H38.3703C39.766 39.1915 40.8894 38.0681 40.8894 36.6723V24.1787H28.4979V39.1915Z" fill="#2D2D2D"/>
</g>
</g>
<defs>
<filter id="filter0_d_2081_16115" x="0" y="0" width="53" height="53" filterUnits="userSpaceOnUse" color-interpolation-filters="sRGB">
<feFlood flood-opacity="0" result="BackgroundImageFix"/>
<feColorMatrix in="SourceAlpha" type="matrix" values="0 0 0 0 0 0 0 0 0 0 0 0 0 0 0 0 0 0 127 0" result="hardAlpha"/>
<feOffset dy="4"/>
<feGaussianBlur stdDeviation="2"/>
<feComposite in2="hardAlpha" operator="out"/>
<feColorMatrix type="matrix" values="0 0 0 0 0 0 0 0 0 0 0 0 0 0 0 0 0 0 0.18 0"/>
<feBlend mode="normal" in2="BackgroundImageFix" result="effect1_dropShadow_2081_16115"/>
<feBlend mode="normal" in="SourceGraphic" in2="effect1_dropShadow_2081_16115" result="shape"/>
</filter>
<linearGradient id="paint0_linear_2081_16115" x1="26.5" y1="45" x2="26.5" y2="0" gradientUnits="userSpaceOnUse">
<stop stop-color="#E00051"/>
<stop offset="0.0001" stop-color="#E00051" stop-opacity="0.5"/>
<stop offset="0.0964166" stop-color="#E00051" stop-opacity="0.25"/>
<stop offset="0.991417" stop-color="#E00051" stop-opacity="0"/>
</linearGradient>
<clipPath id="clip0_2081_16115">
<rect width="32" height="33.0213" fill="white" transform="translate(11 6)"/>
</clipPath>
</defs>
</svg>
