<svg width="53" height="53" viewBox="0 0 53 53" fill="none" xmlns="http://www.w3.org/2000/svg">
<g filter="url(#filter0_d_2081_14297)">
<rect x="4" width="45" height="45" rx="10" fill="#A3BFFF"/>
<rect x="4" width="45" height="45" rx="10" fill="url(#paint0_linear_2081_14297)"/>
<rect x="4.75" y="0.75" width="43.5" height="43.5" rx="9.25" stroke="#2D2D2D" stroke-width="1.5"/>
<g clip-path="url(#clip0_2081_14297)">
<path d="M23.9058 25.006C24.4189 25.3497 25.0191 25.5685 25.6623 25.618C24.0751 28.131 21.2627 31.9436 17.5557 34.2873C17.1312 34.5555 16.5804 34.243 16.5934 33.7378L16.6494 31.7561C16.6624 31.5061 16.5127 31.2691 16.2809 31.1688L14.4866 30.3694C14.0244 30.1636 13.9801 29.5256 14.4111 29.2626C14.6741 29.1064 14.9736 28.9189 15.3109 28.7001C19.2862 28.1871 22.0362 26.6441 23.9045 25.0061L23.9058 25.006Z" fill="#2D2D2D"/>
<path d="M39.3616 30.3693L37.5673 31.1688C37.3356 31.2691 37.1858 31.506 37.1988 31.756L37.2548 33.7378C37.2665 34.2443 36.717 34.5568 36.2926 34.2873C32.5869 31.9435 29.7742 28.1309 28.1859 25.6179C28.8291 25.5685 29.4294 25.3497 29.9424 25.006C31.8109 26.6427 34.5607 28.187 38.5361 28.7C38.8733 28.9187 39.1728 29.1062 39.4358 29.2625C39.8668 29.5242 39.8225 30.1622 39.3603 30.3692L39.3616 30.3693Z" fill="#2D2D2D"/>
<path d="M22.2379 21.8864C22.2379 22.7301 22.5126 23.5049 22.9879 24.1299C21.2444 25.6299 18.6622 27.0426 14.9436 27.4932C13.3068 27.6872 11.8811 26.3864 11.9253 24.781C11.9501 23.8929 12.1193 23.0245 12.4384 22.3435C12.7756 21.6182 12.9449 20.6625 12.9449 19.7002C12.9449 18.738 12.7756 17.781 12.4384 17.057C12.1193 16.376 11.9501 15.5075 11.9253 14.6195C11.8811 13.0127 13.3068 11.7132 14.9436 11.9073C18.6622 12.3578 21.2429 13.7705 22.9879 15.2706C22.5126 15.8956 22.2379 16.6703 22.2379 17.5141V18.3331C21.5322 17.9464 20.5126 17.5271 19.0751 17.2146C18.7379 17.1456 18.4059 17.3578 18.3316 17.6964C18.2626 18.0336 18.4749 18.3656 18.8134 18.4399C20.6702 18.8396 21.7001 19.4216 22.2197 19.8084C21.6755 20.1586 20.6012 20.6769 18.7131 20.9581C18.3693 21.0076 18.1323 21.3266 18.1818 21.6638C18.2313 21.9763 18.4943 22.2016 18.8003 22.2016C18.8315 22.2016 18.8628 22.1951 18.894 22.1951C20.4253 21.9698 21.5008 21.5948 22.2377 21.2329V21.8891L22.2379 21.8864Z" fill="#2D2D2D"/>
<path d="M41.4112 22.3434C41.7303 23.0244 41.8995 23.8928 41.9243 24.7809C41.962 26.3876 40.5428 27.6871 38.8995 27.4931C35.1809 27.0426 32.6052 25.6363 30.8619 24.1298C31.3371 23.5048 31.6119 22.73 31.6119 21.8863V21.23C32.3488 21.592 33.4244 21.967 34.9555 22.1922C34.9868 22.1922 35.018 22.1987 35.0493 22.1987C35.3553 22.1987 35.6183 21.9735 35.6678 21.661C35.7173 21.3237 35.4803 21.0047 35.1365 20.9552C33.2485 20.674 32.1743 20.1558 31.6299 19.8055C32.1481 19.4188 33.1793 18.8368 35.0362 18.437C35.3734 18.3615 35.5857 18.0307 35.518 17.6935C35.4424 17.3563 35.1117 17.144 34.7745 17.2117C33.337 17.5242 32.3187 17.9435 31.6117 18.3302V17.5112C31.6117 16.6675 31.337 15.8927 30.8617 15.2677C32.6052 13.7612 35.1807 12.355 38.8994 11.9044C40.5426 11.7104 41.9619 13.0112 41.9241 14.6166C41.8994 15.5034 41.7301 16.3731 41.4111 17.0541C41.0738 17.7794 40.9046 18.7351 40.9046 19.6974C40.9046 20.6596 41.0738 21.6166 41.4111 22.3406L41.4112 22.3434Z" fill="#2D2D2D"/>
<path d="M25.9869 15.0114H27.8619C29.2421 15.0114 30.3619 16.3916 30.3619 17.5114V21.8864C30.3619 23.2666 29.2421 24.3864 27.8619 24.3864H25.9869C24.6067 24.3864 23.4869 23.0062 23.4869 21.8864V17.5114C23.4869 16.1312 24.6067 15.0114 25.9869 15.0114Z" fill="#2D2D2D"/>
</g>
</g>
<defs>
<filter id="filter0_d_2081_14297" x="0" y="0" width="53" height="53" filterUnits="userSpaceOnUse" color-interpolation-filters="sRGB">
<feFlood flood-opacity="0" result="BackgroundImageFix"/>
<feColorMatrix in="SourceAlpha" type="matrix" values="0 0 0 0 0 0 0 0 0 0 0 0 0 0 0 0 0 0 127 0" result="hardAlpha"/>
<feOffset dy="4"/>
<feGaussianBlur stdDeviation="2"/>
<feComposite in2="hardAlpha" operator="out"/>
<feColorMatrix type="matrix" values="0 0 0 0 0 0 0 0 0 0 0 0 0 0 0 0 0 0 0.18 0"/>
<feBlend mode="normal" in2="BackgroundImageFix" result="effect1_dropShadow_2081_14297"/>
<feBlend mode="normal" in="SourceGraphic" in2="effect1_dropShadow_2081_14297" result="shape"/>
</filter>
<linearGradient id="paint0_linear_2081_14297" x1="26.5" y1="45" x2="26.5" y2="0" gradientUnits="userSpaceOnUse">
<stop stop-color="#E00051"/>
<stop offset="0.0001" stop-color="#E00051" stop-opacity="0.5"/>
<stop offset="0.0964166" stop-color="#E00051" stop-opacity="0.25"/>
<stop offset="0.991417" stop-color="#E00051" stop-opacity="0"/>
</linearGradient>
<clipPath id="clip0_2081_14297">
<rect width="30" height="22.5" fill="white" transform="translate(12 12)"/>
</clipPath>
</defs>
</svg>
