<svg width="53" height="53" viewBox="0 0 53 53" fill="none" xmlns="http://www.w3.org/2000/svg">
<g filter="url(#filter0_d_2081_13704)">
<rect x="4" width="45" height="45" rx="10" fill="#FF1E4B"/>
<rect x="4" width="45" height="45" rx="10" fill="url(#paint0_linear_2081_13704)"/>
<rect x="4.75" y="0.75" width="43.5" height="43.5" rx="9.25" stroke="#2D2D2D" stroke-width="1.5"/>
<g clip-path="url(#clip0_2081_13704)">
<path d="M44.6942 22.3683L42.8997 20.3996C42.2879 19.6989 42.0247 18.7367 42.199 17.8617L42.7681 15.2812C42.8997 14.6694 42.5494 14.1003 41.9803 13.8815L39.4869 13.051C38.6119 12.7878 37.9111 12.0444 37.6052 11.1694L36.8174 8.63152C36.6431 8.06242 36.0296 7.71207 35.4177 7.84367L32.8372 8.41277C31.9177 8.58709 30.9556 8.36834 30.2994 7.71207L28.3306 5.96207C27.8931 5.569 27.1924 5.569 26.7122 5.96207L24.7435 7.71207C24.0428 8.32387 23.0806 8.58707 22.2056 8.41277L19.625 7.84367C19.0132 7.71208 18.4441 8.06242 18.2254 8.63152L17.4376 11.1694C17.1316 12.0444 16.431 12.7451 15.556 13.051L13.0181 13.8815C12.449 14.0558 12.0986 14.6694 12.2303 15.2812L12.7993 17.8617C13.0181 18.7812 12.7549 19.7433 12.0986 20.3996L10.3042 22.3683C9.91113 22.8058 9.91113 23.5065 10.3042 23.9867L12.0986 25.9555C12.7104 26.6562 12.9736 27.6183 12.7993 28.4933L12.2303 31.0739C12.0987 31.6857 12.449 32.2548 13.0181 32.4735L15.5115 33.3041C16.3865 33.61 17.0872 34.3107 17.3931 35.1857L18.181 37.7235C18.3553 38.2926 18.9688 38.643 19.5806 38.5114L22.1611 37.9423C22.3799 37.8978 22.5542 37.8551 22.773 37.8551C23.4736 37.8551 24.1726 38.1183 24.7417 38.5985L26.7104 40.393C27.1479 40.786 27.8486 40.786 28.3288 40.393L30.2976 38.5985C30.9983 37.9867 31.9604 37.7235 32.8354 37.8978L35.416 38.4669C36.0278 38.5985 36.5969 38.2482 36.8156 37.6791L37.6035 35.1857C37.9094 34.3107 38.6101 33.61 39.4851 33.3041L42.0229 32.4735C42.592 32.2992 42.9424 31.6857 42.8108 31.0739L42.2417 28.4933C42.0674 27.5739 42.2861 26.6117 42.9424 25.9555L44.7369 23.9867C45.0872 23.5065 45.0872 22.8058 44.6942 22.3683ZM22.0758 22.8503C21.6828 22.9819 21.288 23.0246 20.8949 23.0246C20.3258 23.0246 19.7567 22.893 19.2765 22.6315C17.4821 21.7121 16.7387 19.5246 17.6581 17.732C18.0956 16.857 18.839 16.2007 19.8012 15.8948C20.7206 15.5889 21.7255 15.6761 22.6005 16.1136C24.3949 17.033 25.1383 19.2205 24.2189 21.0131C23.7814 21.8881 22.9935 22.5444 22.0758 22.8503ZM24.0446 31.5132C23.913 31.8191 23.6071 31.9952 23.3012 31.9952C23.1696 31.9952 23.038 31.9507 22.9081 31.908C22.4706 31.6892 22.2963 31.2073 22.5151 30.7698L30.5217 14.801C30.7405 14.3635 31.2651 14.2319 31.6599 14.408C32.0974 14.6267 32.229 15.1514 32.053 15.5462L24.0446 31.5132ZM37.3437 27.6185C36.9062 28.4935 36.1628 29.1497 35.2007 29.4556C34.8076 29.5872 34.4128 29.6299 34.0625 29.6299C33.4934 29.6299 32.9243 29.4983 32.4441 29.2369C31.5691 28.7994 30.9128 28.056 30.6069 27.1365C30.301 26.2171 30.3882 25.2122 30.8257 24.3372C31.7451 22.5427 33.9326 21.7993 35.7252 22.7188C36.6002 23.1563 37.2565 23.8997 37.5624 24.8618C37.8683 25.7368 37.7812 26.7435 37.3437 27.6185Z" fill="#2D2D2D"/>
<path d="M34.9375 24.25C34.6743 24.1184 34.3684 24.0312 34.0625 24.0312C33.3618 24.0312 32.6629 24.4243 32.3125 25.125C32.0938 25.607 32.0493 26.1316 32.1809 26.6118C32.3552 27.0937 32.7056 27.4868 33.1431 27.75C33.625 27.9688 34.1497 28.0132 34.6299 27.8372C35.1118 27.6628 35.5493 27.3125 35.7681 26.875C36.2944 25.9129 35.8997 24.732 34.9375 24.25Z" fill="#2D2D2D"/>
<path d="M21.8126 17.6429C21.5494 17.5113 21.2435 17.4241 20.9376 17.4241C20.7188 17.4241 20.5445 17.4686 20.3258 17.5113C19.8438 17.6856 19.4063 18.0359 19.1876 18.4734C18.7056 19.4356 19.1004 20.6165 20.0626 21.0984C21.0247 21.5804 22.2056 21.1856 22.6876 20.2234C23.1695 19.3057 22.7747 18.1248 21.8126 17.6429Z" fill="#2D2D2D"/>
</g>
</g>
<defs>
<filter id="filter0_d_2081_13704" x="0" y="0" width="53" height="53" filterUnits="userSpaceOnUse" color-interpolation-filters="sRGB">
<feFlood flood-opacity="0" result="BackgroundImageFix"/>
<feColorMatrix in="SourceAlpha" type="matrix" values="0 0 0 0 0 0 0 0 0 0 0 0 0 0 0 0 0 0 127 0" result="hardAlpha"/>
<feOffset dy="4"/>
<feGaussianBlur stdDeviation="2"/>
<feComposite in2="hardAlpha" operator="out"/>
<feColorMatrix type="matrix" values="0 0 0 0 0 0 0 0 0 0 0 0 0 0 0 0 0 0 0.18 0"/>
<feBlend mode="normal" in2="BackgroundImageFix" result="effect1_dropShadow_2081_13704"/>
<feBlend mode="normal" in="SourceGraphic" in2="effect1_dropShadow_2081_13704" result="shape"/>
</filter>
<linearGradient id="paint0_linear_2081_13704" x1="26.5" y1="45" x2="26.5" y2="0" gradientUnits="userSpaceOnUse">
<stop stop-color="#C20046"/>
<stop offset="0.0001" stop-color="#7C002D" stop-opacity="0.5"/>
<stop offset="0.0964166" stop-color="#8F0034" stop-opacity="0.25"/>
<stop offset="0.991417" stop-color="#E00051" stop-opacity="0"/>
</linearGradient>
<clipPath id="clip0_2081_13704">
<rect width="35" height="35.875" fill="white" transform="translate(10 5)"/>
</clipPath>
</defs>
</svg>
